<svg version="1.1" xmlns="http://www.w3.org/2000/svg" width="1024" height="1024" viewBox="0 0 1024 1024">
<path fill="#000000" opacity="1.000000" stroke="none" 
	d="
M416.742218,596.880859 
	C411.628998,599.020081 406.891998,601.078491 402.072540,602.921265 
	C400.157745,603.653442 397.927002,605.161987 396.065735,603.026062 
	C394.074371,600.740784 396.297638,599.009888 397.385315,597.309631 
	C403.134918,588.321777 408.420563,579.086426 413.239471,569.557251 
	C417.082306,561.958191 416.586548,555.595825 410.525757,549.101013 
	C402.199280,540.178284 395.509399,529.969727 390.664185,518.700500 
	C388.702698,514.138367 385.532349,511.256592 381.124878,509.055725 
	C360.991180,499.001801 354.949310,474.475586 368.617249,456.615356 
	C373.594757,450.111145 376.085724,443.220703 377.576935,435.386749 
	C386.634735,387.802734 414.425903,354.687988 458.226562,335.673340 
	C497.261017,318.727783 536.364685,320.194061 574.039429,341.081390 
	C579.749756,344.247314 584.937134,344.543182 591.094604,342.099030 
	C613.678284,333.134674 634.421387,345.251221 637.834167,369.273834 
	C638.952271,377.143921 636.387390,384.501343 632.282654,391.123962 
	C629.619934,395.420227 628.949646,399.450836 630.454163,404.339874 
	C633.185303,413.214752 630.081421,419.192261 621.847229,422.125671 
	C612.817749,425.342377 604.926880,422.290833 601.452209,414.238525 
	C596.847290,403.567017 586.708496,399.848602 576.655151,405.766296 
	C566.224854,411.905975 557.356201,420.058533 550.346741,429.936005 
	C542.580444,440.880005 545.987488,459.915833 559.693970,465.851685 
	C564.441284,467.907623 569.187622,469.913574 574.134033,471.384644 
	C582.513428,473.876740 589.860474,472.503815 596.988037,466.837616 
	C611.617004,455.208069 631.945740,457.167725 644.437195,470.739960 
	C656.934631,484.318726 657.086975,505.303436 644.665771,518.922424 
	C641.142212,522.785706 636.750061,525.574097 631.841187,527.375427 
	C627.749146,528.877014 624.766907,531.441528 622.389771,535.095398 
	C598.834595,571.301453 564.872559,590.347046 522.499939,595.442505 
	C500.765839,598.056091 480.059875,593.804504 460.069489,585.633667 
	C454.606628,583.400818 449.618530,582.867188 444.213654,585.211853 
	C435.203400,589.120667 426.131409,592.887146 416.742218,596.880859 
M510.548157,566.706116 
	C529.313782,566.746765 546.698059,561.717834 562.801819,552.231140 
	C573.040527,546.199463 582.629700,539.280334 589.752380,529.565918 
	C593.921936,523.879272 593.864502,520.753479 589.887878,515.039001 
	C587.075012,510.996735 585.009338,506.685181 584.390198,501.805359 
	C583.261841,492.911682 577.998413,487.410797 570.054749,484.168488 
	C565.903381,482.474060 561.666321,480.934753 557.366638,479.669891 
	C548.862305,477.168274 541.247131,478.257538 534.067993,484.264771 
	C525.595032,491.354675 515.512573,493.702484 504.559753,491.113068 
	C496.346558,489.171387 489.559937,484.877197 484.146698,478.416077 
	C480.048462,473.524506 474.882080,471.130188 468.447205,471.036072 
	C460.394409,470.918213 452.558899,471.877167 444.789307,474.059570 
	C437.259827,476.174469 432.280426,480.657166 429.874939,488.088043 
	C428.482056,492.390930 426.922577,496.875549 423.578766,499.869904 
	C418.320251,504.578827 418.996643,509.163696 422.269409,514.404297 
	C442.464386,546.742065 471.143433,564.873352 510.548157,566.706116 
M471.925110,361.429840 
	C470.700195,361.954834 469.465027,362.457184 468.251923,363.008118 
	C439.791412,375.933594 420.027924,396.854004 409.949402,426.610168 
	C408.835907,429.897614 407.835388,433.286224 408.630798,436.881805 
	C410.258698,444.240753 427.014008,459.794189 434.532318,460.736542 
	C436.999542,461.045776 439.520203,461.065460 442.012207,461.014008 
	C448.367615,460.882874 454.537323,459.541992 460.731445,458.196747 
	C469.847198,456.216949 476.071259,451.296936 480.169922,442.707123 
	C488.629272,424.978424 504.052246,418.111633 523.198486,423.105560 
	C529.317078,424.701477 534.712952,423.894318 539.759338,420.243927 
	C549.255554,413.374664 558.132751,405.700806 565.154846,396.350891 
	C576.073242,381.813080 572.558716,373.623108 559.099915,366.559113 
	C531.045837,351.834595 502.256378,350.348663 471.925110,361.429840 
M496.014282,480.524261 
	C508.085236,487.938354 519.960754,487.402496 530.830627,478.953217 
	C539.971741,471.847687 543.688110,457.506042 539.276855,446.312378 
	C533.760071,432.313171 521.268433,427.166779 511.206512,427.618652 
	C498.760925,428.177612 488.279236,436.945374 484.770081,448.680420 
	C481.200775,460.616547 485.029205,471.907623 496.014282,480.524261 
M415.970184,498.491699 
	C422.466949,492.511078 425.907257,484.929077 425.457733,476.282959 
	C424.850708,464.608246 419.145844,455.682800 408.145172,450.955536 
	C397.597595,446.422943 387.545227,447.950317 378.699615,455.173248 
	C369.146942,462.973572 365.958008,473.372131 368.823242,485.172485 
	C373.818939,505.746887 398.034485,512.780457 415.970184,498.491699 
M605.243347,520.331177 
	C606.150085,520.751282 607.038696,521.217041 607.966248,521.584473 
	C619.903870,526.312317 633.571228,522.700928 641.283081,512.795166 
	C649.195679,502.631348 649.461792,488.443817 641.937561,477.888428 
	C634.744324,467.797485 621.348816,463.366425 609.495544,467.436951 
	C598.804749,471.108276 592.126953,478.720428 590.464600,489.827179 
	C588.533569,502.729218 593.293274,513.010620 605.243347,520.331177 
M604.488098,399.657562 
	C609.090637,399.616913 613.339905,398.254059 617.319153,396.055542 
	C630.072449,389.009613 635.093689,372.462372 628.350281,359.853119 
	C621.408997,346.873962 605.185181,341.894867 592.268616,348.779633 
	C582.001831,354.252045 576.208130,366.460236 578.447754,377.902039 
	C580.897888,390.419159 589.775818,398.083313 604.488098,399.657562 
z"/>
<path fill="#000000" opacity="1.000000" stroke="none" 
	d="
M512.900330,476.879120 
	C497.051697,476.245667 490.314514,462.294281 493.245636,451.212952 
	C495.854004,441.351776 504.602448,435.606354 514.884949,436.758606 
	C523.871765,437.765625 531.622437,445.770905 532.291077,454.736725 
	C533.040955,464.791016 526.713928,473.824890 517.246155,476.165802 
	C515.955627,476.484863 514.622437,476.631409 512.900330,476.879120 
z"/>
<path fill="#000000" opacity="1.000000" stroke="none" 
	d="
M410.681335,491.684692 
	C402.370361,498.415405 393.177856,499.280060 385.576355,494.280548 
	C378.473511,489.609039 375.231323,480.504852 377.593658,471.911163 
	C379.808807,463.853027 385.216095,459.174286 393.263123,457.717804 
	C401.135162,456.292969 407.889252,458.794739 412.566528,465.294861 
	C417.417969,472.037079 417.886475,479.463440 414.083832,486.952484 
	C413.266876,488.561279 411.998566,489.940887 410.681335,491.684692 
z"/>
<path fill="#000000" opacity="1.000000" stroke="none" 
	d="
M609.679321,512.588257 
	C598.449219,505.403503 595.675964,492.935577 602.719849,482.628326 
	C608.617920,473.997589 621.179382,472.044342 630.234924,478.349731 
	C638.468872,484.083038 641.071899,495.505066 636.260925,504.595276 
	C632.130615,512.399597 620.472168,518.391113 609.679321,512.588257 
z"/>
<path fill="#000000" opacity="1.000000" stroke="none" 
	d="
M593.384705,358.251465 
	C601.612183,353.195618 608.845215,353.131104 615.480103,358.164764 
	C621.428833,362.677948 623.795044,368.805664 622.355713,376.158447 
	C620.842285,383.889313 615.164062,389.208374 607.181152,390.738708 
	C600.000671,392.115234 592.291321,388.092590 588.613342,381.050232 
	C584.613647,373.391937 586.276978,365.012238 593.384705,358.251465 
z"/>
</svg>